<?xml version="1.0" encoding="UTF-8" standalone="no"?>
<svg
   xmlns:dc="http://purl.org/dc/elements/1.1/"
   xmlns:cc="http://creativecommons.org/ns#"
   xmlns:rdf="http://www.w3.org/1999/02/22-rdf-syntax-ns#"
   xmlns:svg="http://www.w3.org/2000/svg"
   xmlns="http://www.w3.org/2000/svg"
   xmlns:sodipodi="http://sodipodi.sourceforge.net/DTD/sodipodi-0.dtd"
   xmlns:inkscape="http://www.inkscape.org/namespaces/inkscape"
   width="210mm"
   height="297mm"
   viewBox="0 0 210 297"
   version="1.1"
   id="svg23"
   inkscape:version="1.0.1 (3bc2e813f5, 2020-09-07)"
   sodipodi:docname="acrylic combined 2.svg">
  <defs
     id="defs17" />
  <sodipodi:namedview
     id="base"
     pagecolor="#ffffff"
     bordercolor="#666666"
     borderopacity="1.0"
     inkscape:pageopacity="0.0"
     inkscape:pageshadow="2"
     inkscape:zoom="0.57597229"
     inkscape:cx="582.89078"
     inkscape:cy="489.85057"
     inkscape:document-units="mm"
     inkscape:current-layer="layer1"
     inkscape:document-rotation="0"
     showgrid="false"
     inkscape:window-width="2560"
     inkscape:window-height="1377"
     inkscape:window-x="-8"
     inkscape:window-y="-8"
     inkscape:window-maximized="1"
     showguides="false" />
  <metadata
     id="metadata20">
    <rdf:RDF>
      <cc:Work
         rdf:about="">
        <dc:format>image/svg+xml</dc:format>
        <dc:type
           rdf:resource="http://purl.org/dc/dcmitype/StillImage" />
        <dc:title></dc:title>
      </cc:Work>
    </rdf:RDF>
  </metadata>
  <g
     inkscape:label="Layer 1"
     inkscape:groupmode="layer"
     id="layer1"
     style="display:inline">
    <path
       id="rect1331"
       style="fill:#e6e6e6;fill-opacity:1;stroke-width:0.849342"
       d="m 43.464817,171.19255 a 1.9999998,1.9999998 0 0 1 -1.9699,-1.99988 V 63.162443 a 1.9999998,1.9999998 0 0 1 1.99988,-1.969907 H 321.02514 a 1.9999999,1.9999999 0 0 1 1.96991,1.999879 V 169.22264 a 1.9999999,1.9999999 0 0 1 -1.99988,1.96991 H 112.99495 v -7.49981 H 315.49472 V 68.692338 H 48.994717 v 95.000402 h 50.00005 v 7.49981 z m 1.78026,-2.15026 a 1.5999997,1.5999997 0 0 0 1.5999,-1.5999 1.5999997,1.5999997 0 0 0 -1.5999,-1.59991 1.5999997,1.5999997 0 0 0 -1.59991,1.59991 1.5999997,1.5999997 0 0 0 1.59991,1.5999 z m 136.999903,0 a 1.6,1.6 0 0 0 1.5999,-1.5999 1.6,1.6 0 0 0 -1.5999,-1.59991 1.6,1.6 0 0 0 -1.5999,1.59991 1.6,1.6 0 0 0 1.5999,1.5999 z m 136.99991,0 a 1.5999999,1.5999999 0 0 0 1.59989,-1.5999 1.5999999,1.5999999 0 0 0 -1.59989,-1.59991 1.5999999,1.5999999 0 0 0 -1.59991,1.59991 1.5999999,1.5999999 0 0 0 1.59991,1.5999 z M 45.245077,66.542598 a 1.5999998,1.5999998 0 0 0 1.5999,-1.599903 1.5999998,1.5999998 0 0 0 -1.5999,-1.599901 1.5999998,1.5999998 0 0 0 -1.60042,1.599901 1.5999998,1.5999998 0 0 0 1.60042,1.599903 z m 136.999903,0 a 1.5999998,1.5999998 0 0 0 1.5999,-1.599903 1.5999998,1.5999998 0 0 0 -1.5999,-1.599901 1.5999998,1.5999998 0 0 0 -1.5999,1.599901 1.5999998,1.5999998 0 0 0 1.5999,1.599903 z m 136.99991,0 a 1.5999999,1.5999999 0 0 0 1.59989,-1.599903 1.5999999,1.5999999 0 0 0 -1.59989,-1.599901 1.5999999,1.5999999 0 0 0 -1.59991,1.599901 1.5999999,1.5999999 0 0 0 1.59991,1.599903 z" />
    <path
       id="rect1331-3"
       style="fill:#e6e6e6;fill-opacity:1;stroke-width:0.849342"
       d="M 110,1.969905 A 1.9999998,1.9999998 0 0 0 108.00013,0 H 1.969905 A 1.9999998,1.9999998 0 0 0 0,1.999878 V 279.53023 a 1.9999999,1.9999999 0 0 0 1.999877,1.9699 H 108.0301 A 1.9999999,1.9999999 0 0 0 110,279.50025 V 71.500028 h -7.4998 V 273.9998 H 7.4998 v -266.5 h 95.0004 V 57.499849 H 110 Z m -2.14974,1.780253 a 1.5999997,1.5999997 0 0 1 -1.60042,1.599903 1.5999997,1.5999997 0 0 1 -1.5999,-1.599903 1.5999997,1.5999997 0 0 1 1.5999,-1.600419 1.5999997,1.5999997 0 0 1 1.60042,1.600419 z m 0,136.999902 a 1.6,1.6 0 0 1 -1.60042,1.5999 1.6,1.6 0 0 1 -1.5999,-1.5999 1.6,1.6 0 0 1 1.5999,-1.5999 1.6,1.6 0 0 1 1.60042,1.5999 z m 0,136.99992 a 1.5999999,1.5999999 0 0 1 -1.60042,1.59988 1.5999999,1.5999999 0 0 1 -1.5999,-1.59988 1.5999999,1.5999999 0 0 1 1.5999,-1.59991 1.5999999,1.5999999 0 0 1 1.60042,1.59991 z M 5.35006,3.750158 A 1.5999998,1.5999998 0 0 1 3.750156,5.350061 1.5999998,1.5999998 0 0 1 2.150255,3.750158 1.5999998,1.5999998 0 0 1 3.750156,2.149739 1.5999998,1.5999998 0 0 1 5.35006,3.750158 Z m 0,136.999902 a 1.5999998,1.5999998 0 0 1 -1.599904,1.5999 1.5999998,1.5999998 0 0 1 -1.599901,-1.5999 1.5999998,1.5999998 0 0 1 1.599901,-1.5999 1.5999998,1.5999998 0 0 1 1.599904,1.5999 z m 0,136.99992 a 1.5999999,1.5999999 0 0 1 -1.599904,1.59988 1.5999999,1.5999999 0 0 1 -1.599901,-1.59988 1.5999999,1.5999999 0 0 1 1.599901,-1.59991 1.5999999,1.5999999 0 0 1 1.599904,1.59991 z" />
  </g>
</svg>
