<?xml version="1.0" encoding="UTF-8" standalone="no"?>
<svg
   xmlns:dc="http://purl.org/dc/elements/1.1/"
   xmlns:cc="http://creativecommons.org/ns#"
   xmlns:rdf="http://www.w3.org/1999/02/22-rdf-syntax-ns#"
   xmlns:svg="http://www.w3.org/2000/svg"
   xmlns="http://www.w3.org/2000/svg"
   xmlns:sodipodi="http://sodipodi.sourceforge.net/DTD/sodipodi-0.dtd"
   xmlns:inkscape="http://www.inkscape.org/namespaces/inkscape"
   width="210mm"
   height="297mm"
   viewBox="0 0 210 297"
   version="1.1"
   id="svg23"
   inkscape:version="1.0.1 (3bc2e813f5, 2020-09-07)"
   sodipodi:docname="wood 2.svg">
  <defs
     id="defs17" />
  <sodipodi:namedview
     id="base"
     pagecolor="#ffffff"
     bordercolor="#666666"
     borderopacity="1.0"
     inkscape:pageopacity="0.0"
     inkscape:pageshadow="2"
     inkscape:zoom="0.81454783"
     inkscape:cx="477.09007"
     inkscape:cy="693.49075"
     inkscape:document-units="mm"
     inkscape:current-layer="layer1"
     inkscape:document-rotation="0"
     showgrid="false"
     inkscape:window-width="2560"
     inkscape:window-height="1377"
     inkscape:window-x="-8"
     inkscape:window-y="-8"
     inkscape:window-maximized="1"
     showguides="false" />
  <metadata
     id="metadata20">
    <rdf:RDF>
      <cc:Work
         rdf:about="">
        <dc:format>image/svg+xml</dc:format>
        <dc:type
           rdf:resource="http://purl.org/dc/dcmitype/StillImage" />
        <dc:title></dc:title>
      </cc:Work>
    </rdf:RDF>
  </metadata>
  <g
     inkscape:label="Layer 1"
     inkscape:groupmode="layer"
     id="layer1"
     style="display:inline">
    <path
       id="rect1331-3-7"
       style="fill:#664126;fill-opacity:1;stroke-width:0.849342"
       d="M 1.9699056,0 A 2,2 0 0 0 0,1.99988 V 108.0301 A 1.9999998,1.9999998 0 0 0 1.9998779,110 H 279.53023 a 1.9999998,1.9999998 0 0 0 1.9699,-1.99987 V 1.96991 A 1.9999999,1.9999999 0 0 0 279.50025,0 Z m 1.7802529,2.14974 a 1.5999999,1.5999999 0 0 1 1.5999024,1.60042 1.5999999,1.5999999 0 0 1 -1.5999024,1.5999 1.5999999,1.5999999 0 0 1 -1.600419,-1.5999 1.5999999,1.5999999 0 0 1 1.600419,-1.60042 z m 136.9999015,0 a 1.6,1.6 0 0 1 1.59991,1.60042 1.6,1.6 0 0 1 -1.59991,1.5999 1.6,1.6 0 0 1 -1.5999,-1.5999 1.6,1.6 0 0 1 1.5999,-1.60042 z m 136.99992,0 a 1.5999999,1.5999999 0 0 1 1.59988,1.60042 1.5999999,1.5999999 0 0 1 -1.59988,1.5999 1.5999999,1.5999999 0 0 1 -1.59991,-1.5999 1.5999999,1.5999999 0 0 1 1.59991,-1.60042 z M 7.4998004,7.4998 H 273.9998 v 95.0004 H 7.4998004 Z m -3.7496419,97.15014 a 1.5999997,1.5999997 0 0 1 1.5999024,1.59991 1.5999997,1.5999997 0 0 1 -1.5999024,1.5999 1.5999997,1.5999997 0 0 1 -1.600419,-1.5999 1.5999997,1.5999997 0 0 1 1.600419,-1.59991 z m 136.9999015,0 a 1.5999998,1.5999998 0 0 1 1.59991,1.59991 1.5999998,1.5999998 0 0 1 -1.59991,1.5999 1.5999998,1.5999998 0 0 1 -1.5999,-1.5999 1.5999998,1.5999998 0 0 1 1.5999,-1.59991 z m 136.99992,0 a 1.5999998,1.5999998 0 0 1 1.59988,1.59991 1.5999998,1.5999998 0 0 1 -1.59988,1.5999 1.5999998,1.5999998 0 0 1 -1.59991,-1.5999 1.5999998,1.5999998 0 0 1 1.59991,-1.59991 z" />
  </g>
</svg>
