<?xml version="1.0" encoding="UTF-8" standalone="no"?>
<svg
   xmlns:dc="http://purl.org/dc/elements/1.1/"
   xmlns:cc="http://creativecommons.org/ns#"
   xmlns:rdf="http://www.w3.org/1999/02/22-rdf-syntax-ns#"
   xmlns:svg="http://www.w3.org/2000/svg"
   xmlns="http://www.w3.org/2000/svg"
   xmlns:sodipodi="http://sodipodi.sourceforge.net/DTD/sodipodi-0.dtd"
   xmlns:inkscape="http://www.inkscape.org/namespaces/inkscape"
   width="210mm"
   height="297mm"
   viewBox="0 0 210 297"
   version="1.1"
   id="svg23"
   inkscape:version="1.0.1 (3bc2e813f5, 2020-09-07)"
   sodipodi:docname="wood 1.svg">
  <defs
     id="defs17" />
  <sodipodi:namedview
     id="base"
     pagecolor="#ffffff"
     bordercolor="#666666"
     borderopacity="1.0"
     inkscape:pageopacity="0.0"
     inkscape:pageshadow="2"
     inkscape:zoom="0.81454783"
     inkscape:cx="477.09007"
     inkscape:cy="693.49075"
     inkscape:document-units="mm"
     inkscape:current-layer="layer1"
     inkscape:document-rotation="0"
     showgrid="false"
     inkscape:window-width="2560"
     inkscape:window-height="1377"
     inkscape:window-x="-8"
     inkscape:window-y="-8"
     inkscape:window-maximized="1"
     showguides="false" />
  <metadata
     id="metadata20">
    <rdf:RDF>
      <cc:Work
         rdf:about="">
        <dc:format>image/svg+xml</dc:format>
        <dc:type
           rdf:resource="http://purl.org/dc/dcmitype/StillImage" />
        <dc:title></dc:title>
      </cc:Work>
    </rdf:RDF>
  </metadata>
  <g
     inkscape:label="Layer 1"
     inkscape:groupmode="layer"
     id="layer1"
     style="display:inline">
    <path
       id="rect1331-3-2"
       style="fill:#664126;fill-opacity:1;stroke-width:0.849342"
       d="M 1.9699056,0 A 1.9999999,1.9999999 0 0 0 0,1.99988 V 108.0301 A 1.9999999,1.9999999 0 0 0 1.9998779,110 H 279.53023 a 1.9999999,1.9999999 0 0 0 1.96991,-1.99988 V 1.96991 A 2,2 0 0 0 279.50026,0 Z M 3.7501587,2.59985 A 1.1499997,1.1499997 0 0 1 4.8999593,3.75016 1.1499997,1.1499997 0 0 1 3.7501587,4.89996 1.1499997,1.1499997 0 0 1 2.5998412,3.75016 1.1499997,1.1499997 0 0 1 3.7501587,2.59985 Z m 136.9999013,0 a 1.1499998,1.1499998 0 0 1 1.14981,1.15031 1.1499998,1.1499998 0 0 1 -1.14981,1.1498 1.1499998,1.1499998 0 0 1 -1.15031,-1.1498 1.1499998,1.1499998 0 0 1 1.15031,-1.15031 z m 136.9999,0 a 1.1499998,1.1499998 0 0 1 1.1498,1.15031 1.1499998,1.1499998 0 0 1 -1.1498,1.1498 1.1499998,1.1499998 0 0 1 -1.1498,-1.1498 1.1499998,1.1499998 0 0 1 1.1498,-1.15031 z M 7.4998006,7.49981 H 273.99981 V 102.5002 H 7.4998006 Z m -3.7496419,97.60024 a 1.1499999,1.1499999 0 0 1 1.1498006,1.1498 1.1499999,1.1499999 0 0 1 -1.1498006,1.15033 1.1499999,1.1499999 0 0 1 -1.1503175,-1.15033 1.1499999,1.1499999 0 0 1 1.1503175,-1.1498 z m 136.9999013,0 a 1.1499999,1.1499999 0 0 1 1.14981,1.1498 1.1499999,1.1499999 0 0 1 -1.14981,1.15033 1.1499999,1.1499999 0 0 1 -1.15031,-1.15033 1.1499999,1.1499999 0 0 1 1.15031,-1.1498 z m 136.9999,0 a 1.1499998,1.1499998 0 0 1 1.1498,1.1498 1.1499998,1.1499998 0 0 1 -1.1498,1.15033 1.1499998,1.1499998 0 0 1 -1.1498,-1.15033 1.1499998,1.1499998 0 0 1 1.1498,-1.1498 z" />
  </g>
</svg>
