<?xml version="1.0" encoding="UTF-8" standalone="no"?>
<svg
   xmlns:dc="http://purl.org/dc/elements/1.1/"
   xmlns:cc="http://creativecommons.org/ns#"
   xmlns:rdf="http://www.w3.org/1999/02/22-rdf-syntax-ns#"
   xmlns:svg="http://www.w3.org/2000/svg"
   xmlns="http://www.w3.org/2000/svg"
   xmlns:sodipodi="http://sodipodi.sourceforge.net/DTD/sodipodi-0.dtd"
   xmlns:inkscape="http://www.inkscape.org/namespaces/inkscape"
   width="210mm"
   height="297mm"
   viewBox="0 0 210 297"
   version="1.1"
   id="svg23"
   inkscape:version="1.0.1 (3bc2e813f5, 2020-09-07)"
   sodipodi:docname="wood combined.svg">
  <defs
     id="defs17" />
  <sodipodi:namedview
     id="base"
     pagecolor="#ffffff"
     bordercolor="#666666"
     borderopacity="1.0"
     inkscape:pageopacity="0.0"
     inkscape:pageshadow="2"
     inkscape:zoom="0.81454783"
     inkscape:cx="477.09007"
     inkscape:cy="693.49075"
     inkscape:document-units="mm"
     inkscape:current-layer="layer1"
     inkscape:document-rotation="0"
     showgrid="false"
     inkscape:window-width="2560"
     inkscape:window-height="1377"
     inkscape:window-x="-8"
     inkscape:window-y="-8"
     inkscape:window-maximized="1"
     showguides="false" />
  <metadata
     id="metadata20">
    <rdf:RDF>
      <cc:Work
         rdf:about="">
        <dc:format>image/svg+xml</dc:format>
        <dc:type
           rdf:resource="http://purl.org/dc/dcmitype/StillImage" />
        <dc:title></dc:title>
      </cc:Work>
    </rdf:RDF>
  </metadata>
  <g
     inkscape:label="Layer 1"
     inkscape:groupmode="layer"
     id="layer1"
     style="display:inline">
    <path
       id="rect1331-3-7"
       style="fill:#664126;fill-opacity:1;stroke-width:0.849342"
       d="M 1.9699056,0 A 2,2 0 0 0 0,1.99988 V 108.0301 A 1.9999998,1.9999998 0 0 0 1.9998779,110 H 279.53023 a 1.9999998,1.9999998 0 0 0 1.9699,-1.99987 V 1.96991 A 1.9999999,1.9999999 0 0 0 279.50025,0 Z m 1.7802529,2.14974 a 1.5999999,1.5999999 0 0 1 1.5999024,1.60042 1.5999999,1.5999999 0 0 1 -1.5999024,1.5999 1.5999999,1.5999999 0 0 1 -1.600419,-1.5999 1.5999999,1.5999999 0 0 1 1.600419,-1.60042 z m 136.9999015,0 a 1.6,1.6 0 0 1 1.59991,1.60042 1.6,1.6 0 0 1 -1.59991,1.5999 1.6,1.6 0 0 1 -1.5999,-1.5999 1.6,1.6 0 0 1 1.5999,-1.60042 z m 136.99992,0 a 1.5999999,1.5999999 0 0 1 1.59988,1.60042 1.5999999,1.5999999 0 0 1 -1.59988,1.5999 1.5999999,1.5999999 0 0 1 -1.59991,-1.5999 1.5999999,1.5999999 0 0 1 1.59991,-1.60042 z M 7.4998004,7.4998 H 273.9998 v 95.0004 H 7.4998004 Z m -3.7496419,97.15014 a 1.5999997,1.5999997 0 0 1 1.5999024,1.59991 1.5999997,1.5999997 0 0 1 -1.5999024,1.5999 1.5999997,1.5999997 0 0 1 -1.600419,-1.5999 1.5999997,1.5999997 0 0 1 1.600419,-1.59991 z m 136.9999015,0 a 1.5999998,1.5999998 0 0 1 1.59991,1.59991 1.5999998,1.5999998 0 0 1 -1.59991,1.5999 1.5999998,1.5999998 0 0 1 -1.5999,-1.5999 1.5999998,1.5999998 0 0 1 1.5999,-1.59991 z m 136.99992,0 a 1.5999998,1.5999998 0 0 1 1.59988,1.59991 1.5999998,1.5999998 0 0 1 -1.59988,1.5999 1.5999998,1.5999998 0 0 1 -1.59991,-1.5999 1.5999998,1.5999998 0 0 1 1.59991,-1.59991 z" />
    <path
       id="rect1331-3-2"
       style="fill:#664126;fill-opacity:1;stroke-width:0.849342"
       d="M 1.9699056,110 A 1.9999999,1.9999999 0 0 0 0,111.99988 V 218.0301 A 1.9999999,1.9999999 0 0 0 1.9998779,220 H 279.53023 a 1.9999999,1.9999999 0 0 0 1.96991,-1.99988 V 111.96991 A 2,2 0 0 0 279.50026,110 Z m 1.7802531,2.59985 a 1.1499997,1.1499997 0 0 1 1.1498006,1.15031 1.1499997,1.1499997 0 0 1 -1.1498006,1.1498 1.1499997,1.1499997 0 0 1 -1.1503175,-1.1498 1.1499997,1.1499997 0 0 1 1.1503175,-1.15031 z m 136.9999013,0 a 1.1499998,1.1499998 0 0 1 1.14981,1.15031 1.1499998,1.1499998 0 0 1 -1.14981,1.1498 1.1499998,1.1499998 0 0 1 -1.15031,-1.1498 1.1499998,1.1499998 0 0 1 1.15031,-1.15031 z m 136.9999,0 a 1.1499998,1.1499998 0 0 1 1.1498,1.15031 1.1499998,1.1499998 0 0 1 -1.1498,1.1498 1.1499998,1.1499998 0 0 1 -1.1498,-1.1498 1.1499998,1.1499998 0 0 1 1.1498,-1.15031 z M 7.4998006,117.49981 H 273.99981 V 212.5002 H 7.4998006 Z m -3.7496419,97.60024 a 1.1499999,1.1499999 0 0 1 1.1498006,1.1498 1.1499999,1.1499999 0 0 1 -1.1498006,1.15033 1.1499999,1.1499999 0 0 1 -1.1503175,-1.15033 1.1499999,1.1499999 0 0 1 1.1503175,-1.1498 z m 136.9999013,0 a 1.1499999,1.1499999 0 0 1 1.14981,1.1498 1.1499999,1.1499999 0 0 1 -1.14981,1.15033 1.1499999,1.1499999 0 0 1 -1.15031,-1.15033 1.1499999,1.1499999 0 0 1 1.15031,-1.1498 z m 136.9999,0 a 1.1499998,1.1499998 0 0 1 1.1498,1.1498 1.1499998,1.1499998 0 0 1 -1.1498,1.15033 1.1499998,1.1499998 0 0 1 -1.1498,-1.15033 1.1499998,1.1499998 0 0 1 1.1498,-1.1498 z" />
    <path
       id="rect1269"
       style="fill:#664126;fill-opacity:1;stroke-width:1.50514"
       d="M 1.9699,220 A 1.9999996,1.9999996 0 0 0 0,221.99988 V 328.0301 a 1.9999998,1.9999998 0 0 0 1.99988,1.96991 h 277.53034 a 1.9999997,1.9999997 0 0 0 1.96991,-1.99988 V 221.96991 A 1.9999997,1.9999997 0 0 0 279.50025,220 Z m 1.78026,2.59985 a 1.1499996,1.1499996 0 0 1 1.1498,1.15031 1.1499996,1.1499996 0 0 1 -1.1498,1.1498 1.1499996,1.1499996 0 0 1 -1.15032,-1.1498 1.1499996,1.1499996 0 0 1 1.15032,-1.15031 z m 136.9999,0 a 1.1499997,1.1499997 0 0 1 1.1498,1.15031 1.1499997,1.1499997 0 0 1 -1.1498,1.1498 1.1499997,1.1499997 0 0 1 -1.15032,-1.1498 1.1499997,1.1499997 0 0 1 1.15032,-1.15031 z m 136.99991,0 a 1.1499997,1.1499997 0 0 1 1.1498,1.15031 1.1499997,1.1499997 0 0 1 -1.1498,1.1498 1.1499997,1.1499997 0 0 1 -1.1498,-1.1498 1.1499997,1.1499997 0 0 1 1.1498,-1.15031 z m -23.24975,22.49991 a 1.15,1.15 0 0 1 1.1498,1.15032 1.15,1.15 0 0 1 -1.1498,1.1498 1.15,1.15 0 0 1 -1.15031,-1.1498 1.15,1.15 0 0 1 1.15031,-1.15032 z M 26.9999,246.34982 a 1.1499999,1.1499999 0 0 1 1.15032,1.15031 1.1499999,1.1499999 0 0 1 -1.15032,1.1498 1.1499999,1.1499999 0 0 1 -1.1498,-1.1498 1.1499999,1.1499999 0 0 1 1.1498,-1.15031 z m 113.70004,18.50016 a 1.1499999,1.1499999 0 0 1 1.1498,1.1498 1.1499999,1.1499999 0 0 1 -1.1498,1.15032 1.1499999,1.1499999 0 0 1 -1.14981,-1.15032 1.1499999,1.1499999 0 0 1 1.14981,-1.1498 z m 114.3,36.5001 a 1.15,1.15 0 0 1 1.14979,1.1498 1.15,1.15 0 0 1 -1.14979,1.15031 1.15,1.15 0 0 1 -1.14981,-1.15031 1.15,1.15 0 0 1 1.14981,-1.1498 z M 26.9999,302.85025 a 1.1499999,1.1499999 0 0 1 1.15032,1.14979 1.1499999,1.1499999 0 0 1 -1.15032,1.1498 1.1499999,1.1499999 0 0 1 -1.1498,-1.1498 1.1499999,1.1499999 0 0 1 1.1498,-1.14979 z m -23.24974,22.2498 a 1.1499998,1.1499998 0 0 1 1.1498,1.1498 1.1499998,1.1499998 0 0 1 -1.1498,1.15032 1.1499998,1.1499998 0 0 1 -1.15032,-1.15032 1.1499998,1.1499998 0 0 1 1.15032,-1.1498 z m 136.9999,0 a 1.1499998,1.1499998 0 0 1 1.1498,1.1498 1.1499998,1.1499998 0 0 1 -1.1498,1.15032 1.1499998,1.1499998 0 0 1 -1.15032,-1.15032 1.1499998,1.1499998 0 0 1 1.15032,-1.1498 z m 136.99991,0 a 1.1499998,1.1499998 0 0 1 1.1498,1.1498 1.1499998,1.1499998 0 0 1 -1.1498,1.15032 1.1499998,1.1499998 0 0 1 -1.1498,-1.15032 1.1499998,1.1499998 0 0 1 1.1498,-1.1498 z" />
    <g
       id="g1486"
       transform="matrix(0.87708877,0,0,0.87084467,225.93785,234.92575)">
      <path
         id="path948-4"
         style="display:inline;opacity:1;fill:#392515;fill-opacity:1;stroke:#000000;stroke-width:0.265;stroke-linecap:butt;stroke-linejoin:miter;stroke-miterlimit:4;stroke-dasharray:none;stroke-opacity:0.5"
         d="m -118.84917,21.101256 c -0.19336,-0.013 -0.41482,0.0266 -0.67179,0.13281 -1.18841,0.49107 -1.93948,3.39232 -2.51665,4.88394 -0.59538,1.5387 -1.84588,5.14116 -2.2288,6.87968 -0.35177,1.59707 -1.19702,4.16231 -1.50378,5.87974 -0.48073,2.69137 -2.89695,12.39393 -3.23702,14.7128 -0.33099,2.25694 -1.14101,3.85909 -2.1518,5.75727 -1.32673,2.4915 -5.61187,8.00963 -6.79494,10.29602 -0.49552,0.95764 -1.48869,2.8044 0.17932,5.0648 1.06545,1.44383 5.27914,6.22835 14.7283,10.02368 3.56274,1.431 7.3402,2.68547 11.73727,3.24063 4.8873,0.61705 10.51311,0.38958 16.89044,-1.00976 5.41272,-1.18768 10.17588,-3.02424 14.07769,-5.09633 4.13433,-2.19557 7.23558,-4.68548 8.55038,-7.04401 1.06196,-1.90496 0.83262,-5.12224 0.46974,-8.14576 -0.36343,-3.0282 -0.86129,-5.86238 -0.98805,-7.05435 -0.16768,-1.5768 -2.98579,-16.64304 -3.57756,-20.33209 -0.53134,-3.3124 -1.98314,-8.09576 -2.75952,-10.74973 -0.60924,-2.08264 -1.45798,-4.94025 -2.03192,-5.89266 -0.74348,-1.23378 -1.52189,-2.66219 -3.46025,0.64905 -1.84482,3.15145 -5.32299,12.18192 -6.06785,13.64516 -0.58702,1.15316 -0.80462,2.35415 -3.62923,2.4629 -2.92827,0.11274 -5.2843,-0.0921 -7.38198,-0.11989 -2.1127,-0.028 -7.32522,0.46305 -8.72299,-0.12557 -1.3995,-0.58936 -1.93922,-0.86016 -2.59105,-2.17972 -0.44428,-0.89941 -1.91535,-5.73108 -3.13883,-9.46505 -0.72938,-2.22602 -1.42339,-4.05111 -1.61385,-4.44934 -0.41433,-0.86632 -0.72739,-1.90797 -1.56528,-1.96422 z m 3.15898,26.84797 c 2.33431,0.0284 4.96133,1.38565 6.44715,3.59927 0.49801,0.74194 1.0919,1.71828 1.56631,2.88406 0.75546,1.8564 1.29786,4.13913 1.34772,6.31072 0.0774,3.3686 -0.44695,4.84008 -2.03811,7.35459 -1.38374,2.0746 -2.82107,2.96647 -5.92212,3.00447 -2.80685,0.0344 -5.17147,-0.38449 -6.71381,-1.53066 -1.6038,-1.19184 -3.04173,-2.3537 -3.4127,-4.43642 -0.50489,-2.83449 -0.43511,-4.10996 0.19068,-7.40781 0.64782,-3.41396 3.07853,-7.48488 6.01514,-9.17309 0.73782,-0.42416 1.60631,-0.61624 2.51974,-0.60513 z m 23.56859,0.61495 c 1.17493,-0.0189 2.37694,0.25342 3.53053,0.80409 1.04657,0.49958 1.77419,1.18549 2.52129,2.01641 1.4501,1.6128 2.56454,3.23091 3.2551,5.30356 0.94725,2.84304 1.81278,6.84027 0.30438,10.53527 -0.56485,1.38366 -2.24812,3.83788 -5.8813,4.59403 -1.75667,0.3657 -3.63579,0.40634 -5.26118,0.006 -1.46844,-0.36196 -2.82131,-0.94384 -3.94187,-1.89859 -1.12057,-0.95475 -2.13723,-1.9508 -2.78006,-3.48947 -0.56973,-1.47756 -0.51917,-3.72185 -0.40011,-5.71255 0.17997,-3.00917 0.52866,-5.47664 2.74763,-8.77001 1.51854,-2.2538 3.66253,-3.35227 5.90559,-3.38842 z"
         sodipodi:nodetypes="sssssssssssssssssssssssssssssssscssssssssssscszcssss" />
      <path
         style="display:inline;fill:none;stroke:#000000;stroke-width:0.265;stroke-linecap:butt;stroke-linejoin:miter;stroke-miterlimit:4;stroke-dasharray:none;stroke-opacity:0.5"
         d="m -129.63934,81.521466 c 0,0 -0.19878,1.08452 0.13452,2.21289 0.33325,1.12839 1.09717,2.83301 2.04043,4.14228 0.92668,1.28623 1.66042,2.07843 1.66042,2.07843"
         id="path985-3"
         sodipodi:nodetypes="ccsc" />
      <path
         style="display:inline;opacity:1;fill:#392515;fill-opacity:1;stroke:none;stroke-width:0.265;stroke-linecap:butt;stroke-linejoin:miter;stroke-miterlimit:4;stroke-dasharray:none;stroke-opacity:0.5"
         d="m -85.26517,109.25505 h 22.05963 c 0,0 -1.09141,-5.32474 -1.88516,-9.624224 -0.79375,-4.29948 -2.3151,-10.50064 -3.10885,-13.34491 -0.79375,-2.84427 -2.01745,-6.76376 -2.01745,-6.76376 0,0 -0.61468,4.28847 -1.43016,6.52408 -0.40695,1.11567 -0.96839,2.81267 -1.72302,4.51007 -0.62827,1.41317 -1.4618,2.79407 -2.15218,3.90512 -1.20535,1.9398 -5.71129,9.107144 -6.34198,10.124324 -1.90811,3.07744 -3.40083,4.6693 -3.40083,4.6693 z"
         id="path987-6"
         sodipodi:nodetypes="ccsscssssc" />
      <path
         style="display:inline;opacity:1;fill:#392515;fill-opacity:1;stroke:none;stroke-width:0.265;stroke-linecap:butt;stroke-linejoin:miter;stroke-miterlimit:4;stroke-dasharray:none;stroke-opacity:0.5"
         d="m -59.35254,109.23852 h 10.78177 c 0,0 0.1449,-4.20429 0.24805,-5.4901 0.0682,-0.85056 0.0708,-4.247694 -0.0416,-7.197684 -0.0762,-1.99911 -0.23036,-3.74229 -0.3553,-4.54321 -0.4008,-2.56928 -1.15877,-5.4721 -1.90169,-6.92878 -0.7712,-1.51212 -2.34652,-2.90239 -5.06618,-2.39778 -2.80414,0.52029 -4.99684,2.59989 -4.44228,6.54843 0.53574,3.81457 1.3052,7.07001 1.28098,11.587214 -0.0491,2.81258 -0.26413,5.61998 -0.50375,8.42191 z"
         id="path989-8"
         sodipodi:nodetypes="ccsssssscc" />
      <path
         style="display:inline;fill:#392515;fill-opacity:1;stroke:#000000;stroke-width:0.265;stroke-linecap:butt;stroke-linejoin:miter;stroke-miterlimit:4;stroke-dasharray:none;stroke-opacity:0.5"
         d="m -90.9646,68.007226 c -0.008,-0.61414 -0.091,-2.27725 -0.12697,-4.01715 -0.0262,-1.2679 0.001,-2.61725 0.0266,-3.43132 0.0702,-2.25675 0.57188,-6.58157 0.63827,-7.37831 0.0664,-0.79673 -0.20262,-1.33402 -0.90036,-1.39146 -0.69774,-0.0574 -1.14592,0.22216 -1.33301,0.93544 -0.17279,0.65873 -0.577,4.95646 -0.64312,7.36661 -0.0257,0.93616 -0.0949,2.4217 -0.10158,3.89369 -0.008,1.78434 0.0534,3.53781 0.11328,4.12774 0.0819,0.80682 0.54272,1.28043 1.22777,1.25115 0.68504,-0.0293 1.11222,-0.29472 1.09914,-1.35639 z"
         id="path997-1"
         sodipodi:nodetypes="ssszzsssszs" />
      <path
         style="display:inline;fill:#392515;fill-opacity:1;stroke:#000000;stroke-width:0.265;stroke-linecap:butt;stroke-linejoin:miter;stroke-miterlimit:4;stroke-dasharray:none;stroke-opacity:0.5"
         d="m -115.2994,67.265806 c -0.0367,-1.00671 -0.0661,-3.09115 -0.0992,-4.7448 -0.0331,-1.65364 0.25206,-6.43895 0.37608,-7.77014 0.12063,-1.29478 0.26939,-1.53375 0.33374,-2.40705 0.0579,-0.78548 -0.31544,-1.28757 -0.95385,-1.35498 -0.74264,-0.0784 -1.12248,0.27094 -1.27131,0.8827 -0.201,0.8262 -0.39888,3.4045 -0.53885,5.30535 -0.0531,0.72104 -0.15231,1.72514 -0.19224,2.78609 -0.0611,1.62421 -0.0462,3.36595 -0.006,4.3062 0.0661,1.55442 -0.0178,2.28273 0.0815,3.07648 0.0992,0.79375 0.62885,1.10901 1.22205,1.10509 0.73702,-0.005 1.07513,-0.44753 1.04828,-1.18494 z"
         id="path999-1"
         sodipodi:nodetypes="ssssssssssss" />
      <path
         style="display:inline;fill:none;stroke:#000000;stroke-width:0.265;stroke-linecap:butt;stroke-linejoin:miter;stroke-miterlimit:4;stroke-dasharray:none;stroke-opacity:0.5"
         d="m -93.54752,39.359276 c 0.82013,-3.02341 2.72185,-6.20652 4.44603,-8.70052 1.49397,-2.161 2.83861,-3.79726 3.3616,-4.19107"
         id="path1004-1"
         sodipodi:nodetypes="csc" />
      <path
         style="display:inline;fill:none;stroke:#000000;stroke-width:0.265;stroke-linecap:butt;stroke-linejoin:miter;stroke-miterlimit:4;stroke-dasharray:none;stroke-opacity:0.5"
         d="m -126.16943,83.383566 c 3.13373,4.24459 6.76913,8.016 11.97075,10.52375 5.34254,2.57569 10.05945,2.02977 11.91521,1.77734 1.88502,-0.25641 3.43776,-0.73665 3.43776,-0.73665"
         id="path1008-6"
         sodipodi:nodetypes="cssc" />
      <path
         style="display:inline;fill:none;stroke:#000000;stroke-width:0.265;stroke-linecap:butt;stroke-linejoin:miter;stroke-miterlimit:4;stroke-dasharray:none;stroke-opacity:0.5"
         d="m -119.33028,96.770026 c 2.53541,2.3398 4.75595,4.052394 6.36052,4.933544 1.78481,0.98012 6.60118,1.96451 10.67605,0.95628 5.29385,-1.30984 9.08361,-4.658084 11.05403,-6.654524 0.99804,-1.0112 3.16555,-3.46846 5.32627,-6.2466 2.12239,-2.72886 4.11581,-5.8189 5.4626,-7.80691"
         id="path1010-0"
         sodipodi:nodetypes="cssssc" />
      <path
         style="display:inline;fill:none;stroke:#000000;stroke-width:0.265;stroke-linecap:butt;stroke-linejoin:miter;stroke-miterlimit:4;stroke-dasharray:none;stroke-opacity:0.5"
         d="m -93.47895,109.23751 c 3.19154,-3.175 5.46422,-5.33688 7.37042,-7.50654 2.48181,-2.824834 4.36912,-5.951794 5.52902,-8.082494"
         id="path1012-0"
         sodipodi:nodetypes="csc" />
      <path
         style="display:inline;fill:none;stroke:#000000;stroke-width:0.265;stroke-linecap:butt;stroke-linejoin:miter;stroke-miterlimit:4;stroke-dasharray:none;stroke-opacity:0.5"
         d="m -71.01901,69.749456 c 1.36425,0.18191 2.2486,2.34861 2.20761,4.17545 -0.0382,1.70472 -1.63711,5.39088 -3.59668,8.26823"
         id="path1014-7"
         sodipodi:nodetypes="csc" />
      <path
         style="display:inline;fill:none;stroke:#000000;stroke-width:0.265;stroke-linecap:butt;stroke-linejoin:miter;stroke-miterlimit:4;stroke-dasharray:none;stroke-opacity:0.5"
         d="m -70.29703,78.538336 c 0,0 0.0157,0.56433 0.08,0.98382"
         id="path1016-9"
         sodipodi:nodetypes="cc" />
      <path
         style="display:inline;fill:none;stroke:#000000;stroke-width:0.265;stroke-linecap:butt;stroke-linejoin:miter;stroke-miterlimit:4;stroke-dasharray:none;stroke-opacity:0.5"
         d="m -75.30196,42.480826 c 1.10737,-2.35239 2.06913,-7.51577 2.53124,-12.38726 0.17622,-1.85761 0.37509,-3.95043 0.33817,-5.31635 -0.15804,-5.84667 -1.30258,-6.64448 -4.21635,-5.25076 -2.51894,1.20486 -3.30807,2.04402 -4.25065,2.63933"
         id="path1018-7"
         sodipodi:nodetypes="csssc" />
      <path
         style="display:inline;fill:none;stroke:#000000;stroke-width:0.265;stroke-linecap:butt;stroke-linejoin:miter;stroke-miterlimit:4;stroke-dasharray:none;stroke-opacity:0.5"
         d="m -71.34148,66.351206 c 1.86862,-1.38079 4.54659,-1.50323 7.11068,-2.33163 2.68718,-0.86817 7.90443,-2.61277 11.87318,-6.88744"
         id="path1022-0"
         sodipodi:nodetypes="csc" />
      <path
         style="display:inline;fill:none;stroke:#000000;stroke-width:0.265;stroke-linecap:butt;stroke-linejoin:miter;stroke-miterlimit:4;stroke-dasharray:none;stroke-opacity:0.5"
         d="m -74.31372,48.000436 c 1.15395,-2.851 4.28434,-7.2338 12.44763,-12.8618 8.25886,-5.69388 17.13662,-8.50375 20.74157,-9.33057 3.60495,-0.82682 8.11172,-0.76116 7.18049,4.59166 -2.4557,14.33918 -9.34095,26.13021 -17.27204,33.87478 -1.69095,1.51173 -3.73575,2.94989 -6.46629,3.97013 -5.53335,2.06745 -9.24207,2.51463 -11.77874,2.64493"
         id="path1039-8"
         sodipodi:nodetypes="cssccsc" />
      <path
         style="display:inline;opacity:1;fill:none;fill-opacity:1;stroke:#000000;stroke-width:0.264999;stroke-linecap:butt;stroke-linejoin:miter;stroke-miterlimit:4;stroke-dasharray:none;stroke-opacity:0.5"
         d="m -63.20554,109.25505 c 0,0 -1.09141,-5.32474 -1.88516,-9.624224 -0.79375,-4.29948 -2.3151,-10.50064 -3.10885,-13.34491 -0.79375,-2.84427 -2.01745,-6.76376 -2.01745,-6.76376 0,0 -0.61468,4.28847 -1.43016,6.52408 -0.40695,1.11567 -0.96839,2.81267 -1.72302,4.51007 -0.62827,1.41317 -1.4618,2.79407 -2.15218,3.90512 -1.20535,1.9398 -5.71129,9.107144 -6.34198,10.124324 -1.90811,3.07744 -3.40083,4.6693 -3.40083,4.6693"
         id="path987-6-5"
         sodipodi:nodetypes="csscssssc" />
      <path
         style="display:inline;opacity:1;fill:none;fill-opacity:1;stroke:#000000;stroke-width:0.264999;stroke-linecap:butt;stroke-linejoin:miter;stroke-miterlimit:4;stroke-dasharray:none;stroke-opacity:0.5"
         d="m -48.57077,109.23852 c 0,0 0.1449,-4.20429 0.24805,-5.4901 0.0682,-0.85056 0.0708,-4.247694 -0.0416,-7.197684 -0.0762,-1.99911 -0.23036,-3.74229 -0.3553,-4.54321 -0.4008,-2.56928 -1.15877,-5.4721 -1.90169,-6.92878 -0.7712,-1.51212 -2.34652,-2.90239 -5.06618,-2.39778 -2.80414,0.52029 -4.99684,2.59989 -4.44228,6.54843 0.53574,3.81457 1.3052,7.07001 1.28098,11.587214 -0.0491,2.81258 -0.26413,5.61998 -0.50375,8.42191"
         id="path989-8-6"
         sodipodi:nodetypes="csssssscc" />
      <path
         style="display:inline;fill:none;stroke:#000000;stroke-width:0.265;stroke-linecap:butt;stroke-linejoin:miter;stroke-miterlimit:4;stroke-dasharray:none;stroke-opacity:0.5"
         d="m -72.97474,55.456266 c 1.04331,-3.08988 3.94504,-5.92398 6.07596,-8.05366 2.02922,-2.02803 6.28715,-6.13571 9.66955,-8.01542 1.86766,-1.03791 3.60165,-1.92562 5.11588,-2.33524 3.09504,-0.83725 2.96616,0.32364 2.28994,2.07952"
         id="path1020-5"
         sodipodi:nodetypes="csssc" />
      <path
         style="fill:#392515;fill-opacity:1;stroke:none;stroke-width:0.264583px;stroke-linecap:butt;stroke-linejoin:miter;stroke-opacity:1"
         d="m -123.06993,109.24636 c 0,0 -0.074,-0.42064 -0.0552,-0.86993 0.0173,-0.41211 0.0351,-0.74064 0.0351,-0.74064 0,0 0.16949,0.49404 0.33146,0.81284 0.11439,0.22514 0.38983,0.7962 0.38983,0.7962 l -0.70128,0.003"
         id="path1000"
         sodipodi:nodetypes="cscscc" />
      <path
         style="display:inline;fill:none;stroke:#000000;stroke-width:0.265;stroke-linecap:butt;stroke-linejoin:miter;stroke-miterlimit:4;stroke-dasharray:none;stroke-opacity:0.5;paint-order:stroke fill markers"
         d="m -122.36865,109.24484 c -1.3684,-2.77909 -2.25505,-5.37264 -3.2829,-8.09921 -0.86104,-2.263184 -2.28717,-5.881264 -2.84982,-9.762074 -0.35002,-2.41424 -0.41797,-4.65142 -0.26787,-5.73746"
         id="path981-9"
         sodipodi:nodetypes="ccsc" />
      <path
         style="display:inline;fill:none;stroke:#000000;stroke-width:0.265;stroke-linecap:butt;stroke-linejoin:miter;stroke-miterlimit:4;stroke-dasharray:none;stroke-opacity:0.5"
         d="m -123.06994,109.24638 c 0,0 -0.0463,-0.3018 -0.0565,-0.77396 -0.0102,-0.47217 0.0365,-0.83663 0.0365,-0.83663"
         id="path983-2"
         sodipodi:nodetypes="czc" />
    </g>
  </g>
</svg>
